<svg width="25" height="29" viewBox="0 0 25 29" fill="none" xmlns="http://www.w3.org/2000/svg">
<path d="M4.77295 22.8923C4.94746 23.089 5.12998 23.2791 5.32019 23.462C6.49758 24.5946 7.96964 25.454 9.65926 25.9067C14.9939 27.3361 20.4773 24.1703 21.9067 18.8356C23.3361 13.501 20.1703 8.01761 14.8356 6.58819C9.50098 5.15877 4.01761 8.3246 2.58819 13.6593C2.13389 15.3547 2.14376 17.0652 2.5399 18.6558C2.60231 18.9064 2.67431 19.154 2.75559 19.3981" stroke="#F9F9FF" stroke-width="1.5" stroke-linecap="round"/>
<path d="M17.8458 12.3716C18.0196 11.9956 17.8557 11.55 17.4797 11.3762C17.1037 11.2024 16.658 11.3664 16.4842 11.7424L17.165 12.057L17.8458 12.3716ZM19.2474 23.3888L19.7724 22.8532C18.059 21.1736 16.9974 18.8351 16.9974 16.2474H16.2474H15.4974C15.4974 19.2544 16.733 21.9742 18.7223 23.9244L19.2474 23.3888ZM17.165 12.057L16.4842 11.7424C15.8505 13.1135 15.4974 14.6402 15.4974 16.2474H16.2474H16.9974C16.9974 14.8619 17.3015 13.5496 17.8458 12.3716L17.165 12.057Z" fill="#F9F9FF"/>
<path d="M7.79684 21.0978C7.6034 21.4641 7.14966 21.6042 6.78339 21.4107C6.41712 21.2173 6.27702 20.7636 6.47046 20.3973L7.13365 20.7476L7.79684 21.0978ZM5.24742 9.24756L5.76707 8.70676C7.75777 10.6196 8.99742 13.2909 8.99742 16.2476H8.24742H7.49742C7.49742 13.7203 6.4398 11.4334 4.72777 9.78835L5.24742 9.24756ZM7.13365 20.7476L6.47046 20.3973C7.12679 19.1546 7.49742 17.7443 7.49742 16.2476H8.24742H8.99742C8.99742 17.9952 8.56398 19.6453 7.79684 21.0978L7.13365 20.7476Z" fill="#F9F9FF"/>
<path d="M12.2474 6.24756V26.2476" stroke="#F9F9FF" stroke-width="1.5" stroke-linecap="round"/>
<path d="M22.2474 16.2476L2.24738 16.2476" stroke="#F9F9FF" stroke-width="1.5" stroke-linecap="round"/>
</svg>
