<svg width="25" height="25" viewBox="0 0 25 25" fill="none" xmlns="http://www.w3.org/2000/svg">
<path d="M3.125 11.125C3.125 7.35376 3.125 5.46815 4.29657 4.29657C5.46815 3.125 7.35376 3.125 11.125 3.125H13.875C17.6462 3.125 19.5319 3.125 20.7034 4.29657C21.875 5.46815 21.875 7.35376 21.875 11.125V13.875C21.875 17.6462 21.875 19.5319 20.7034 20.7034C19.5319 21.875 17.6462 21.875 13.875 21.875H11.125C7.35376 21.875 5.46815 21.875 4.29657 20.7034C3.125 19.5319 3.125 17.6462 3.125 13.875V11.125Z" stroke="black" stroke-width="2"/>
<circle cx="17.1875" cy="7.8125" r="1.5625" fill="black"/>
<circle cx="12.5" cy="12.4999" r="3.16667" stroke="black" stroke-width="2"/>
</svg>
