<svg width="30" height="22" viewBox="0 0 30 22" fill="none" xmlns="http://www.w3.org/2000/svg">
<path d="M17.3333 12C16.2222 12 15.2778 11.6111 14.5 10.8333C13.7222 10.0556 13.3333 9.11111 13.3333 8C13.3333 6.88889 13.7222 5.94444 14.5 5.16667C15.2778 4.38889 16.2222 4 17.3333 4C18.4444 4 19.3889 4.38889 20.1667 5.16667C20.9444 5.94444 21.3333 6.88889 21.3333 8C21.3333 9.11111 20.9444 10.0556 20.1667 10.8333C19.3889 11.6111 18.4444 12 17.3333 12ZM8 16C7.26667 16 6.63889 15.7389 6.11667 15.2167C5.59444 14.6944 5.33333 14.0667 5.33333 13.3333V2.66667C5.33333 1.93333 5.59444 1.30556 6.11667 0.783333C6.63889 0.261111 7.26667 0 8 0H26.6667C27.4 0 28.0278 0.261111 28.55 0.783333C29.0722 1.30556 29.3333 1.93333 29.3333 2.66667V13.3333C29.3333 14.0667 29.0722 14.6944 28.55 15.2167C28.0278 15.7389 27.4 16 26.6667 16H8ZM10.6667 13.3333H24C24 12.6 24.2611 11.9722 24.7833 11.45C25.3056 10.9278 25.9333 10.6667 26.6667 10.6667V5.33333C25.9333 5.33333 25.3056 5.07222 24.7833 4.55C24.2611 4.02778 24 3.4 24 2.66667H10.6667C10.6667 3.4 10.4056 4.02778 9.88333 4.55C9.36111 5.07222 8.73333 5.33333 8 5.33333V10.6667C8.73333 10.6667 9.36111 10.9278 9.88333 11.45C10.4056 11.9722 10.6667 12.6 10.6667 13.3333ZM25.3333 21.3333H2.66667C1.93333 21.3333 1.30556 21.0722 0.783333 20.55C0.261111 20.0278 0 19.4 0 18.6667V4H2.66667V18.6667H25.3333V21.3333ZM8 13.3333V2.66667V13.3333Z" fill="#00734C"/>
</svg>
