<svg width="170" height="242" viewBox="0 0 170 242" fill="none" xmlns="http://www.w3.org/2000/svg">
<path d="M17.8125 238.342L0 220.842L51.25 169.592C57.7083 163.134 62.1354 155.061 64.5312 145.373C66.9271 135.686 68.125 120.842 68.125 100.842C68.125 88.7586 70.8333 76.8836 76.25 65.2169C81.6667 53.5502 89.375 42.7169 99.375 32.7169C118.333 13.7586 139.271 3.02941 162.188 0.529412C185.104 -1.97059 203.958 4.38358 218.75 19.5919C233.75 34.5919 240 53.5502 237.5 76.4669C235 99.3836 224.375 120.217 205.625 138.967C195.625 148.967 184.792 156.675 173.125 162.092C161.458 167.509 149.583 170.217 137.5 170.217C117.292 170.217 102.5 171.363 93.125 173.654C83.75 175.946 75.7292 180.425 69.0625 187.092L17.8125 238.342ZM103.75 133.967C113.542 143.55 126.771 147.092 143.438 144.592C160.104 142.092 175 134.279 188.125 121.154C201.458 107.821 209.427 92.8732 212.031 76.3107C214.635 59.7482 211.042 46.7794 201.25 37.4044C191.25 27.4044 178.177 23.6544 162.031 26.1544C145.885 28.6544 131.042 36.5711 117.5 49.9044C104.375 63.0294 96.4062 77.8732 93.5938 94.4357C90.7812 110.998 94.1667 124.175 103.75 133.967ZM200 275.842C186.25 275.842 174.479 270.946 164.688 261.154C154.896 251.363 150 239.592 150 225.842C150 212.092 154.896 200.321 164.688 190.529C174.479 180.738 186.25 175.842 200 175.842C213.75 175.842 225.521 180.738 235.312 190.529C245.104 200.321 250 212.092 250 225.842C250 239.592 245.104 251.363 235.312 261.154C225.521 270.946 213.75 275.842 200 275.842Z" fill="#041B3C"/>
</svg>
