<svg width="25" height="25" viewBox="0 0 25 25" fill="none" xmlns="http://www.w3.org/2000/svg">
<g clip-path="url(#clip0_26_60)">
<path d="M23.9583 3.12498C22.9608 3.8286 21.8564 4.36676 20.6875 4.71873C20.0602 3.99738 19.2264 3.48611 18.299 3.25407C17.3716 3.02202 16.3953 3.08039 15.5022 3.42128C14.609 3.76218 13.8421 4.36914 13.3052 5.1601C12.7683 5.95105 12.4872 6.88783 12.5 7.84373V8.88539C10.6694 8.93286 8.8555 8.52687 7.21981 7.70357C5.58411 6.88027 4.17742 5.66522 3.12501 4.16664C3.12501 4.16664 -1.04166 13.5416 8.33334 17.7083C6.18805 19.1645 3.63246 19.8947 1.04167 19.7916C10.4167 25 21.875 19.7916 21.875 7.81248C21.874 7.52232 21.8461 7.23289 21.7917 6.94789C22.8548 5.89945 23.605 4.57572 23.9583 3.12498Z" stroke="black" stroke-width="2" stroke-linecap="round" stroke-linejoin="round"/>
</g>
<defs>
<clipPath id="clip0_26_60">
<rect width="25" height="25" fill="white"/>
</clipPath>
</defs>
</svg>
